<?xml version="1.0" encoding="UTF-8"?>
<svg id="Layer_1" xmlns="http://www.w3.org/2000/svg" version="1.1" xmlns:xlink="http://www.w3.org/1999/xlink" viewBox="0 0 283.7 47.3">
  <!-- Generator: Adobe Illustrator 30.0.0, SVG Export Plug-In . SVG Version: 2.1.1 Build 123)  -->
  <defs>
    <style>
      .st0 {
        fill: url(#_名称未設定グラデーション_2);
      }

      .st1 {
        fill: #ce1c40;
      }

      .st2 {
        fill: url(#linear-gradient);
      }
    </style>
    <linearGradient id="linear-gradient" x1="29.2" y1="18.7" x2="66.3" y2="28.6" gradientUnits="userSpaceOnUse">
      <stop offset="0" stop-color="#1d2086"/>
      <stop offset=".1" stop-color="#172c8e"/>
      <stop offset=".2" stop-color="#0a4ea4"/>
      <stop offset=".2" stop-color="#0068b5"/>
      <stop offset=".3" stop-color="#0064b2"/>
      <stop offset=".4" stop-color="#005aaa"/>
      <stop offset=".4" stop-color="#00499d"/>
      <stop offset=".5" stop-color="#004096"/>
      <stop offset=".5" stop-color="#00459a"/>
      <stop offset=".6" stop-color="#0054a6"/>
      <stop offset=".7" stop-color="#0068b5"/>
    </linearGradient>
    <linearGradient id="_名称未設定グラデーション_2" data-name="名称未設定グラデーション 2" x1="15.9" y1="20.6" x2="28.5" y2="35.6" gradientUnits="userSpaceOnUse">
      <stop offset="0" stop-color="#004096"/>
      <stop offset=".2" stop-color="#0068b5"/>
      <stop offset=".4" stop-color="#0068b5"/>
      <stop offset=".5" stop-color="#0063b1"/>
      <stop offset=".6" stop-color="#0057a7"/>
      <stop offset=".7" stop-color="#004297"/>
      <stop offset=".7" stop-color="#004096"/>
    </linearGradient>
  </defs>
  <g>
    <path class="st2" d="M58.6,22.5v12s-8.5,8.7-14.8,5.5c-6.3-3.2-5.7-10.7-12-13.8-3.8-1.9-7.6-.7-10,.5l6.3-10.8c1.6-.7,5-1.6,8.7.3,5.3,2.6,4.1,8.1,9.5,10.4,4.7,2,11.5-3.5,12.3-4.1ZM38.6,12.7c4.8,2.4,4.9,7.7,8.2,9.1,4.7,2.1,11.1-3.6,11.8-4.2v-7.2s-4.4,5.1-8.6,3.3c-3.2-1.3-3.5-7-7.5-9-4-2-7.9.2-7.9.2l-4.5,7.8c.2-.1,3.9-2.4,8.6,0Z"/>
    <path class="st0" d="M18.3,22.1l-13.3,18.6H1s17.2-18.6,17.2-18.6ZM32.1,7.2l-11.4,12.3-12.9,21.2h5.9s8.2-13.9,8.2-13.9l12.7-21.7-2.4,2.2Z"/>
  </g>
  <g>
    <path d="M89.5,18.5h2.5v9c0,2.2.1,3.7.4,4.5.4,1.2,1,2.1,2,2.8,1,.7,2.2,1,3.6,1s2.6-.3,3.5-1c1-.7,1.6-1.5,2-2.6.2-.7.4-2.3.4-4.7v-9h2.5v9.4c0,2.7-.3,4.6-.9,6-.6,1.3-1.6,2.4-2.8,3.2-1.2.8-2.8,1.1-4.7,1.1s-3.4-.4-4.7-1.1c-1.3-.8-2.2-1.8-2.8-3.2-.6-1.4-.9-3.4-.9-6.1v-9.3Z"/>
    <path d="M69.4,11.8h15.8v2.5h-13.2v8.1h12.2v2.5h-12.2v12.8h-2.6V11.8Z"/>
    <path d="M112.1,18.6h2.5v3.4c1-1.3,2.1-2.3,3.3-3,1.2-.7,2.5-1,3.9-1s2.7.4,3.8,1.1c1.1.7,1.9,1.7,2.5,3,.5,1.2.8,3.2.8,5.8v9.9h-2.5v-9.2c0-2.2,0-3.7-.3-4.4-.3-1.3-.8-2.2-1.6-2.9-.8-.6-1.9-1-3.2-1s-2.8.5-4,1.5c-1.2,1-2,2.2-2.3,3.7-.2,1-.4,2.7-.4,5.2v7h-2.5v-19.2Z"/>
    <path d="M153.5,18.6v19.2h-2.4v-3.3c-1,1.3-2.2,2.2-3.5,2.8-1.3.6-2.7.9-4.2.9-2.7,0-5-1-7-3-1.9-2-2.9-4.4-2.9-7.2s1-5.1,2.9-7.1c1.9-2,4.3-2.9,7-2.9s3,.3,4.3,1c1.3.7,2.4,1.7,3.4,3v-3.5h2.4ZM143.6,20.5c-1.4,0-2.6.3-3.8,1-1.2.7-2.1,1.6-2.8,2.8-.7,1.2-1,2.5-1,3.9s.3,2.6,1,3.9c.7,1.2,1.6,2.2,2.8,2.9,1.2.7,2.4,1,3.8,1s2.6-.3,3.8-1c1.2-.7,2.1-1.6,2.8-2.8.7-1.2,1-2.5,1-3.9,0-2.2-.7-4.1-2.2-5.6-1.5-1.5-3.3-2.2-5.4-2.2Z"/>
    <path class="st1" d="M162.2,11.3c.8,0,1.5.3,2.1.9.6.6.9,1.3.9,2.1s-.3,1.5-.9,2c-.6.6-1.3.9-2.1.9s-1.5-.3-2-.9c-.6-.6-.9-1.3-.9-2s.3-1.5.9-2.1c.6-.6,1.2-.9,2-.9Z"/>
    <rect x="160.9" y="20.5" width="2.5" height="17.3"/>
    <path d="M206.8,18.1c3,0,5.4,1.1,7.4,3.2,1.8,2,2.7,4.3,2.7,6.9s-.9,5-2.8,7c-1.9,2-4.3,3-7.2,3s-5.4-1-7.2-3c-1.9-2-2.8-4.4-2.8-7s.9-5,2.7-6.9c2-2.2,4.4-3.2,7.4-3.2ZM206.7,20.5c-2.1,0-3.8.8-5.3,2.3-1.5,1.5-2.2,3.4-2.2,5.5s.3,2.7,1,3.9c.7,1.2,1.6,2.1,2.7,2.8,1.1.7,2.4,1,3.8,1s2.6-.3,3.8-1c1.1-.7,2-1.6,2.7-2.8.7-1.2,1-2.5,1-3.9,0-2.2-.7-4-2.2-5.5-1.5-1.5-3.2-2.3-5.3-2.3Z"/>
    <path d="M221.4,11.8h2.5v14.6l8.9-7.8h3.6l-10.6,9.2,11.2,10.1h-3.5l-9.7-8.7v8.7h-2.5V11.8Z"/>
    <path d="M256.6,31.4l2.1,1.1c-.7,1.3-1.5,2.4-2.4,3.2-.9.8-1.9,1.5-3,1.9-1.1.4-2.4.6-3.8.6-3.1,0-5.6-1-7.4-3.1-1.8-2.1-2.6-4.4-2.6-7s.7-4.6,2.2-6.5c1.9-2.4,4.4-3.6,7.6-3.6s5.9,1.2,7.9,3.7c1.4,1.8,2.1,3.9,2.1,6.6h-17.3c0,2.2.8,4.1,2.1,5.5,1.4,1.4,3.1,2.1,5.1,2.1s1.9-.2,2.9-.5c.9-.3,1.7-.8,2.4-1.4.6-.6,1.3-1.5,2.1-2.7ZM256.6,26.2c-.3-1.3-.8-2.4-1.4-3.2-.6-.8-1.5-1.4-2.5-1.9-1-.5-2.1-.7-3.3-.7-1.9,0-3.5.6-4.9,1.8-1,.9-1.7,2.2-2.2,4h14.3Z"/>
    <path d="M263.7,18.6h2.5v3.4c1-1.3,2.1-2.3,3.3-3,1.2-.7,2.5-1,3.9-1s2.7.4,3.8,1.1c1.1.7,1.9,1.7,2.5,3,.5,1.2.8,3.2.8,5.8v9.9h-2.5v-9.2c0-2.2,0-3.7-.3-4.4-.3-1.3-.8-2.2-1.6-2.9-.8-.6-1.9-1-3.2-1s-2.8.5-4,1.5c-1.2,1-2,2.2-2.3,3.7-.2,1-.4,2.7-.4,5.2v7h-2.5v-19.2Z"/>
    <path d="M177.3,33l2.3-1.3c1.6,2.8,3.5,4.3,5.6,4.3s1.8-.2,2.6-.6c.8-.4,1.4-.9,1.8-1.6.4-.7.6-1.4.6-2.2s-.3-1.7-.9-2.5c-.8-1.1-2.4-2.5-4.6-4.1-2.3-1.6-3.7-2.8-4.2-3.5-1-1.2-1.4-2.5-1.4-4s.3-2.1.8-3.1c.6-.9,1.4-1.7,2.4-2.2,1-.5,2.1-.8,3.3-.8s2.5.3,3.6.9c1.1.6,2.3,1.7,3.5,3.3l-2.2,1.6c-1-1.3-1.9-2.1-2.6-2.6-.7-.4-1.5-.6-2.4-.6s-2,.3-2.7,1c-.7.6-1,1.4-1,2.3s.1,1.1.4,1.6c.2.5.7,1.1,1.3,1.7.4.3,1.5,1.2,3.5,2.6,2.4,1.7,4,3.1,4.8,4.4.9,1.3,1.3,2.6,1.3,3.9,0,1.9-.7,3.5-2.2,4.9-1.5,1.4-3.3,2.1-5.4,2.1s-3.1-.4-4.5-1.3c-1.3-.8-2.6-2.2-3.7-4.2Z"/>
  </g>
</svg>