<?xml version="1.0" encoding="UTF-8"?>
<svg id="Layer_1" xmlns="http://www.w3.org/2000/svg" version="1.1" viewBox="0 0 36.4 36.2">
  <!-- Generator: Adobe Illustrator 30.0.0, SVG Export Plug-In . SVG Version: 2.1.1 Build 123)  -->
  <defs>
    <style>
      .st0 {
        fill: #ff8f8f;
      }

      .st1 {
        fill: #fff;
      }
    </style>
  </defs>
  <rect class="st0" x="-152.7" y="25.5" width="72.5" height="69.5"/>
  <g>
    <path class="st1" d="M16.9,32.5c-8.8,0-15.9-7.2-15.9-15.9S8.1.6,16.9.6s15.9,7.2,15.9,15.9-7.2,15.9-15.9,15.9ZM16.9,3.5c-7.2,0-13,5.9-13,13s5.9,13,13,13,13-5.9,13-13S24.1,3.5,16.9,3.5Z"/>
    <path class="st1" d="M8.2,18c-.8,0-1.5-.6-1.5-1.5,0-5.6,4.6-10.1,10.1-10.1s1.5.6,1.5,1.5-.6,1.5-1.5,1.5c-4,0-7.2,3.3-7.2,7.2s-.6,1.5-1.5,1.5Z"/>
    <path class="st1" d="M34.3,35.4c-.4,0-.7-.1-1-.4l-7.2-7.2c-.6-.6-.6-1.5,0-2.1s1.5-.6,2.1,0l7.2,7.2c.6.6.6,1.5,0,2.1s-.7.4-1,.4Z"/>
  </g>
</svg>